ISO-10303-21;
HEADER;
/* Generated by software containing ST-Developer
 * from STEP Tools, Inc. (www.steptools.com) 
 */
/* OPTION: using custom renumber hook */

FILE_DESCRIPTION(
/* description */ ('STEP AP242 Edition 2',
'CAx-IF Rec.Pracs.---Representation and Presentation of Product Manufa
cturing Information (PMI)---4.0---2014-10-13',
'CAx-IF Rec.Pracs.---3D Tessellated Geometry---0.4---2014-09-14','2;1',
'CAx-IF Rec.Pracs.---User Defined Attributes---1.5---2016-08-15'),
/* implementation_level */ '2;1');

FILE_NAME(
/* name */ 'Part Studio 1',
/* time_stamp */ '2026-08-22T18:54:34Z',
/* author */ (''),
/* organization */ (''),
/* preprocessor_version */ 'ST-DEVELOPER v20',
/* originating_system */ 'ONSHAPE BY PTC INC, 1.219',
/* authorisation */ '  ');

FILE_SCHEMA (('AP242_MANAGED_MODEL_BASED_3D_ENGINEERING_MIM_LF { 1 0 10303 442 3 1 4 }'));
ENDSEC;

DATA;
#10=DRAUGHTING_PRE_DEFINED_COLOUR('black');
#11=SHAPE_REPRESENTATION_RELATIONSHIP('','',#602,#13);
#12=SHAPE_REPRESENTATION_RELATIONSHIP('','',#603,#14);
#13=ADVANCED_BREP_SHAPE_REPRESENTATION('',(#598),#942);
#14=ADVANCED_BREP_SHAPE_REPRESENTATION('',(#599),#943);
#15=ORIENTED_EDGE('',*,*,#171,.T.);
#16=ORIENTED_EDGE('',*,*,#172,.F.);
#17=ORIENTED_EDGE('',*,*,#173,.F.);
#18=ORIENTED_EDGE('',*,*,#174,.T.);
#19=ORIENTED_EDGE('',*,*,#175,.T.);
#20=ORIENTED_EDGE('',*,*,#176,.F.);
#21=ORIENTED_EDGE('',*,*,#177,.F.);
#22=ORIENTED_EDGE('',*,*,#172,.T.);
#23=ORIENTED_EDGE('',*,*,#178,.F.);
#24=ORIENTED_EDGE('',*,*,#179,.F.);
#25=ORIENTED_EDGE('',*,*,#180,.T.);
#26=ORIENTED_EDGE('',*,*,#176,.T.);
#27=ORIENTED_EDGE('',*,*,#181,.F.);
#28=ORIENTED_EDGE('',*,*,#182,.F.);
#29=ORIENTED_EDGE('',*,*,#183,.T.);
#30=ORIENTED_EDGE('',*,*,#184,.T.);
#31=ORIENTED_EDGE('',*,*,#185,.F.);
#32=ORIENTED_EDGE('',*,*,#186,.F.);
#33=ORIENTED_EDGE('',*,*,#187,.T.);
#34=ORIENTED_EDGE('',*,*,#182,.T.);
#35=ORIENTED_EDGE('',*,*,#188,.T.);
#36=ORIENTED_EDGE('',*,*,#189,.F.);
#37=ORIENTED_EDGE('',*,*,#190,.F.);
#38=ORIENTED_EDGE('',*,*,#186,.T.);
#39=ORIENTED_EDGE('',*,*,#191,.T.);
#40=ORIENTED_EDGE('',*,*,#184,.F.);
#41=ORIENTED_EDGE('',*,*,#192,.F.);
#42=ORIENTED_EDGE('',*,*,#189,.T.);
#43=ORIENTED_EDGE('',*,*,#193,.F.);
#44=ORIENTED_EDGE('',*,*,#174,.F.);
#45=ORIENTED_EDGE('',*,*,#194,.T.);
#46=ORIENTED_EDGE('',*,*,#179,.T.);
#47=ORIENTED_EDGE('',*,*,#183,.F.);
#48=ORIENTED_EDGE('',*,*,#187,.F.);
#49=ORIENTED_EDGE('',*,*,#190,.T.);
#50=ORIENTED_EDGE('',*,*,#192,.T.);
#51=ORIENTED_EDGE('',*,*,#173,.T.);
#52=ORIENTED_EDGE('',*,*,#177,.T.);
#53=ORIENTED_EDGE('',*,*,#180,.F.);
#54=ORIENTED_EDGE('',*,*,#194,.F.);
#55=ORIENTED_EDGE('',*,*,#178,.T.);
#56=ORIENTED_EDGE('',*,*,#175,.F.);
#57=ORIENTED_EDGE('',*,*,#171,.F.);
#58=ORIENTED_EDGE('',*,*,#193,.T.);
#59=ORIENTED_EDGE('',*,*,#181,.T.);
#60=ORIENTED_EDGE('',*,*,#191,.F.);
#61=ORIENTED_EDGE('',*,*,#188,.F.);
#62=ORIENTED_EDGE('',*,*,#185,.T.);
#63=ORIENTED_EDGE('',*,*,#195,.T.);
#64=ORIENTED_EDGE('',*,*,#196,.T.);
#65=ORIENTED_EDGE('',*,*,#197,.T.);
#66=ORIENTED_EDGE('',*,*,#198,.F.);
#67=ORIENTED_EDGE('',*,*,#199,.F.);
#68=ORIENTED_EDGE('',*,*,#200,.T.);
#69=ORIENTED_EDGE('',*,*,#201,.F.);
#70=ORIENTED_EDGE('',*,*,#202,.F.);
#71=ORIENTED_EDGE('',*,*,#203,.T.);
#72=ORIENTED_EDGE('',*,*,#204,.T.);
#73=ORIENTED_EDGE('',*,*,#205,.F.);
#74=ORIENTED_EDGE('',*,*,#197,.F.);
#75=ORIENTED_EDGE('',*,*,#206,.T.);
#76=ORIENTED_EDGE('',*,*,#207,.F.);
#77=ORIENTED_EDGE('',*,*,#208,.F.);
#78=ORIENTED_EDGE('',*,*,#209,.T.);
#79=ORIENTED_EDGE('',*,*,#198,.T.);
#80=ORIENTED_EDGE('',*,*,#205,.T.);
#81=ORIENTED_EDGE('',*,*,#210,.F.);
#82=ORIENTED_EDGE('',*,*,#211,.F.);
#83=ORIENTED_EDGE('',*,*,#212,.T.);
#84=ORIENTED_EDGE('',*,*,#213,.F.);
#85=ORIENTED_EDGE('',*,*,#214,.F.);
#86=ORIENTED_EDGE('',*,*,#215,.T.);
#87=ORIENTED_EDGE('',*,*,#216,.T.);
#88=ORIENTED_EDGE('',*,*,#217,.F.);
#89=ORIENTED_EDGE('',*,*,#218,.T.);
#90=ORIENTED_EDGE('',*,*,#219,.T.);
#91=ORIENTED_EDGE('',*,*,#220,.F.);
#92=ORIENTED_EDGE('',*,*,#200,.F.);
#93=ORIENTED_EDGE('',*,*,#221,.F.);
#94=ORIENTED_EDGE('',*,*,#222,.T.);
#95=ORIENTED_EDGE('',*,*,#223,.F.);
#96=ORIENTED_EDGE('',*,*,#224,.F.);
#97=ORIENTED_EDGE('',*,*,#225,.F.);
#98=ORIENTED_EDGE('',*,*,#226,.T.);
#99=ORIENTED_EDGE('',*,*,#217,.T.);
#100=ORIENTED_EDGE('',*,*,#227,.T.);
#101=ORIENTED_EDGE('',*,*,#212,.F.);
#102=ORIENTED_EDGE('',*,*,#228,.F.);
#103=ORIENTED_EDGE('',*,*,#229,.T.);
#104=ORIENTED_EDGE('',*,*,#202,.T.);
#105=ORIENTED_EDGE('',*,*,#230,.F.);
#106=ORIENTED_EDGE('',*,*,#231,.F.);
#107=ORIENTED_EDGE('',*,*,#228,.T.);
#108=ORIENTED_EDGE('',*,*,#211,.T.);
#109=ORIENTED_EDGE('',*,*,#232,.T.);
#110=ORIENTED_EDGE('',*,*,#233,.T.);
#111=ORIENTED_EDGE('',*,*,#218,.F.);
#112=ORIENTED_EDGE('',*,*,#226,.F.);
#113=ORIENTED_EDGE('',*,*,#222,.F.);
#114=ORIENTED_EDGE('',*,*,#234,.T.);
#115=ORIENTED_EDGE('',*,*,#235,.T.);
#116=ORIENTED_EDGE('',*,*,#236,.F.);
#117=ORIENTED_EDGE('',*,*,#195,.F.);
#118=ORIENTED_EDGE('',*,*,#220,.T.);
#119=ORIENTED_EDGE('',*,*,#237,.T.);
#120=ORIENTED_EDGE('',*,*,#238,.F.);
#121=ORIENTED_EDGE('',*,*,#239,.F.);
#122=ORIENTED_EDGE('',*,*,#240,.F.);
#123=ORIENTED_EDGE('',*,*,#223,.T.);
#124=ORIENTED_EDGE('',*,*,#238,.T.);
#125=ORIENTED_EDGE('',*,*,#241,.F.);
#126=ORIENTED_EDGE('',*,*,#242,.F.);
#127=ORIENTED_EDGE('',*,*,#224,.T.);
#128=ORIENTED_EDGE('',*,*,#240,.T.);
#129=ORIENTED_EDGE('',*,*,#243,.F.);
#130=ORIENTED_EDGE('',*,*,#232,.F.);
#131=ORIENTED_EDGE('',*,*,#225,.T.);
#132=ORIENTED_EDGE('',*,*,#242,.T.);
#133=ORIENTED_EDGE('',*,*,#244,.T.);
#134=ORIENTED_EDGE('',*,*,#203,.F.);
#135=ORIENTED_EDGE('',*,*,#229,.F.);
#136=ORIENTED_EDGE('',*,*,#231,.T.);
#137=ORIENTED_EDGE('',*,*,#204,.F.);
#138=ORIENTED_EDGE('',*,*,#244,.F.);
#139=ORIENTED_EDGE('',*,*,#230,.T.);
#140=ORIENTED_EDGE('',*,*,#210,.T.);
#141=ORIENTED_EDGE('',*,*,#237,.F.);
#142=ORIENTED_EDGE('',*,*,#219,.F.);
#143=ORIENTED_EDGE('',*,*,#233,.F.);
#144=ORIENTED_EDGE('',*,*,#243,.T.);
#145=ORIENTED_EDGE('',*,*,#241,.T.);
#146=ORIENTED_EDGE('',*,*,#239,.T.);
#147=ORIENTED_EDGE('',*,*,#245,.T.);
#148=ORIENTED_EDGE('',*,*,#208,.T.);
#149=ORIENTED_EDGE('',*,*,#246,.F.);
#150=ORIENTED_EDGE('',*,*,#215,.F.);
#151=ORIENTED_EDGE('',*,*,#214,.T.);
#152=ORIENTED_EDGE('',*,*,#199,.T.);
#153=ORIENTED_EDGE('',*,*,#209,.F.);
#154=ORIENTED_EDGE('',*,*,#245,.F.);
#155=ORIENTED_EDGE('',*,*,#246,.T.);
#156=ORIENTED_EDGE('',*,*,#213,.T.);
#157=ORIENTED_EDGE('',*,*,#227,.F.);
#158=ORIENTED_EDGE('',*,*,#216,.F.);
#159=ORIENTED_EDGE('',*,*,#221,.T.);
#160=ORIENTED_EDGE('',*,*,#201,.T.);
#161=ORIENTED_EDGE('',*,*,#247,.F.);
#162=ORIENTED_EDGE('',*,*,#234,.F.);
#163=ORIENTED_EDGE('',*,*,#247,.T.);
#164=ORIENTED_EDGE('',*,*,#207,.T.);
#165=ORIENTED_EDGE('',*,*,#248,.F.);
#166=ORIENTED_EDGE('',*,*,#235,.F.);
#167=ORIENTED_EDGE('',*,*,#236,.T.);
#168=ORIENTED_EDGE('',*,*,#248,.T.);
#169=ORIENTED_EDGE('',*,*,#206,.F.);
#170=ORIENTED_EDGE('',*,*,#196,.F.);
#171=EDGE_CURVE('',#249,#250,#301,.T.);
#172=EDGE_CURVE('',#251,#250,#302,.T.);
#173=EDGE_CURVE('',#252,#251,#303,.T.);
#174=EDGE_CURVE('',#252,#249,#304,.T.);
#175=EDGE_CURVE('',#250,#253,#305,.T.);
#176=EDGE_CURVE('',#254,#253,#306,.T.);
#177=EDGE_CURVE('',#251,#254,#307,.T.);
#178=EDGE_CURVE('',#255,#253,#308,.T.);
#179=EDGE_CURVE('',#256,#255,#309,.T.);
#180=EDGE_CURVE('',#256,#254,#310,.T.);
#181=EDGE_CURVE('',#257,#258,#311,.T.);
#182=EDGE_CURVE('',#259,#257,#312,.T.);
#183=EDGE_CURVE('',#259,#260,#313,.T.);
#184=EDGE_CURVE('',#260,#258,#314,.T.);
#185=EDGE_CURVE('',#261,#257,#315,.T.);
#186=EDGE_CURVE('',#262,#261,#316,.T.);
#187=EDGE_CURVE('',#262,#259,#317,.T.);
#188=EDGE_CURVE('',#261,#263,#318,.T.);
#189=EDGE_CURVE('',#264,#263,#319,.T.);
#190=EDGE_CURVE('',#262,#264,#320,.T.);
#191=EDGE_CURVE('',#263,#258,#321,.T.);
#192=EDGE_CURVE('',#264,#260,#322,.T.);
#193=EDGE_CURVE('',#249,#255,#323,.T.);
#194=EDGE_CURVE('',#252,#256,#324,.T.);
#195=EDGE_CURVE('',#265,#266,#325,.T.);
#196=EDGE_CURVE('',#266,#267,#326,.T.);
#197=EDGE_CURVE('',#267,#268,#327,.T.);
#198=EDGE_CURVE('',#269,#268,#328,.T.);
#199=EDGE_CURVE('',#270,#269,#329,.T.);
#200=EDGE_CURVE('',#270,#265,#330,.T.);
#201=EDGE_CURVE('',#271,#272,#331,.T.);
#202=EDGE_CURVE('',#273,#271,#332,.T.);
#203=EDGE_CURVE('',#273,#274,#333,.T.);
#204=EDGE_CURVE('',#274,#275,#334,.T.);
#205=EDGE_CURVE('',#268,#275,#335,.T.);
#206=EDGE_CURVE('',#267,#276,#336,.T.);
#207=EDGE_CURVE('',#272,#276,#337,.T.);
#208=EDGE_CURVE('',#277,#278,#338,.T.);
#209=EDGE_CURVE('',#277,#269,#339,.T.);
#210=EDGE_CURVE('',#279,#275,#340,.T.);
#211=EDGE_CURVE('',#280,#279,#341,.T.);
#212=EDGE_CURVE('',#280,#281,#342,.T.);
#213=EDGE_CURVE('',#278,#281,#343,.T.);
#214=EDGE_CURVE('',#282,#270,#344,.T.);
#215=EDGE_CURVE('',#282,#283,#345,.T.);
#216=EDGE_CURVE('',#283,#284,#346,.T.);
#217=EDGE_CURVE('',#285,#284,#347,.T.);
#218=EDGE_CURVE('',#285,#286,#348,.T.);
#219=EDGE_CURVE('',#286,#287,#349,.T.);
#220=EDGE_CURVE('',#265,#287,#350,.T.);
#221=EDGE_CURVE('',#288,#271,#351,.T.);
#222=EDGE_CURVE('',#288,#289,#352,.T.);
#223=EDGE_CURVE('',#290,#289,#353,.T.);
#224=EDGE_CURVE('',#291,#290,#354,.T.);
#225=EDGE_CURVE('',#292,#291,#355,.T.);
#226=EDGE_CURVE('',#292,#285,#356,.T.);
#227=EDGE_CURVE('',#284,#281,#357,.T.);
#228=EDGE_CURVE('',#293,#280,#358,.T.);
#229=EDGE_CURVE('',#293,#273,#359,.T.);
#230=EDGE_CURVE('',#294,#279,#360,.T.);
#231=EDGE_CURVE('',#293,#294,#361,.T.);
#232=EDGE_CURVE('',#292,#295,#362,.T.);
#233=EDGE_CURVE('',#295,#286,#363,.T.);
#234=EDGE_CURVE('',#288,#296,#364,.T.);
#235=EDGE_CURVE('',#296,#297,#365,.T.);
#236=EDGE_CURVE('',#266,#297,#366,.T.);
#237=EDGE_CURVE('',#287,#298,#367,.T.);
#238=EDGE_CURVE('',#289,#298,#368,.T.);
#239=EDGE_CURVE('',#299,#298,#369,.T.);
#240=EDGE_CURVE('',#290,#299,#370,.T.);
#241=EDGE_CURVE('',#300,#299,#371,.T.);
#242=EDGE_CURVE('',#291,#300,#372,.T.);
#243=EDGE_CURVE('',#295,#300,#373,.T.);
#244=EDGE_CURVE('',#294,#274,#374,.T.);
#245=EDGE_CURVE('',#282,#277,#375,.T.);
#246=EDGE_CURVE('',#283,#278,#376,.T.);
#247=EDGE_CURVE('',#296,#272,#377,.T.);
#248=EDGE_CURVE('',#297,#276,#378,.T.);
#249=VERTEX_POINT('',#781);
#250=VERTEX_POINT('',#782);
#251=VERTEX_POINT('',#784);
#252=VERTEX_POINT('',#786);
#253=VERTEX_POINT('',#790);
#254=VERTEX_POINT('',#792);
#255=VERTEX_POINT('',#796);
#256=VERTEX_POINT('',#798);
#257=VERTEX_POINT('',#802);
#258=VERTEX_POINT('',#803);
#259=VERTEX_POINT('',#805);
#260=VERTEX_POINT('',#807);
#261=VERTEX_POINT('',#811);
#262=VERTEX_POINT('',#813);
#263=VERTEX_POINT('',#817);
#264=VERTEX_POINT('',#819);
#265=VERTEX_POINT('',#832);
#266=VERTEX_POINT('',#833);
#267=VERTEX_POINT('',#835);
#268=VERTEX_POINT('',#837);
#269=VERTEX_POINT('',#839);
#270=VERTEX_POINT('',#841);
#271=VERTEX_POINT('',#845);
#272=VERTEX_POINT('',#846);
#273=VERTEX_POINT('',#848);
#274=VERTEX_POINT('',#850);
#275=VERTEX_POINT('',#852);
#276=VERTEX_POINT('',#855);
#277=VERTEX_POINT('',#859);
#278=VERTEX_POINT('',#860);
#279=VERTEX_POINT('',#863);
#280=VERTEX_POINT('',#865);
#281=VERTEX_POINT('',#867);
#282=VERTEX_POINT('',#871);
#283=VERTEX_POINT('',#873);
#284=VERTEX_POINT('',#875);
#285=VERTEX_POINT('',#877);
#286=VERTEX_POINT('',#879);
#287=VERTEX_POINT('',#881);
#288=VERTEX_POINT('',#885);
#289=VERTEX_POINT('',#887);
#290=VERTEX_POINT('',#889);
#291=VERTEX_POINT('',#891);
#292=VERTEX_POINT('',#893);
#293=VERTEX_POINT('',#897);
#294=VERTEX_POINT('',#901);
#295=VERTEX_POINT('',#905);
#296=VERTEX_POINT('',#909);
#297=VERTEX_POINT('',#911);
#298=VERTEX_POINT('',#914);
#299=VERTEX_POINT('',#918);
#300=VERTEX_POINT('',#922);
#301=LINE('',#780,#379);
#302=LINE('',#783,#380);
#303=LINE('',#785,#381);
#304=LINE('',#787,#382);
#305=LINE('',#789,#383);
#306=LINE('',#791,#384);
#307=LINE('',#793,#385);
#308=LINE('',#795,#386);
#309=LINE('',#797,#387);
#310=LINE('',#799,#388);
#311=LINE('',#801,#389);
#312=LINE('',#804,#390);
#313=LINE('',#806,#391);
#314=LINE('',#808,#392);
#315=LINE('',#810,#393);
#316=LINE('',#812,#394);
#317=LINE('',#814,#395);
#318=LINE('',#816,#396);
#319=LINE('',#818,#397);
#320=LINE('',#820,#398);
#321=LINE('',#822,#399);
#322=LINE('',#823,#400);
#323=LINE('',#825,#401);
#324=LINE('',#826,#402);
#325=LINE('',#831,#403);
#326=LINE('',#834,#404);
#327=LINE('',#836,#405);
#328=LINE('',#838,#406);
#329=LINE('',#840,#407);
#330=LINE('',#842,#408);
#331=LINE('',#844,#409);
#332=LINE('',#847,#410);
#333=LINE('',#849,#411);
#334=LINE('',#851,#412);
#335=LINE('',#853,#413);
#336=LINE('',#854,#414);
#337=LINE('',#856,#415);
#338=LINE('',#858,#416);
#339=LINE('',#861,#417);
#340=LINE('',#862,#418);
#341=LINE('',#864,#419);
#342=LINE('',#866,#420);
#343=LINE('',#868,#421);
#344=LINE('',#870,#422);
#345=LINE('',#872,#423);
#346=LINE('',#874,#424);
#347=LINE('',#876,#425);
#348=LINE('',#878,#426);
#349=LINE('',#880,#427);
#350=LINE('',#882,#428);
#351=LINE('',#884,#429);
#352=LINE('',#886,#430);
#353=LINE('',#888,#431);
#354=LINE('',#890,#432);
#355=LINE('',#892,#433);
#356=LINE('',#894,#434);
#357=LINE('',#895,#435);
#358=LINE('',#896,#436);
#359=LINE('',#898,#437);
#360=LINE('',#900,#438);
#361=LINE('',#902,#439);
#362=LINE('',#904,#440);
#363=LINE('',#906,#441);
#364=LINE('',#908,#442);
#365=LINE('',#910,#443);
#366=LINE('',#912,#444);
#367=LINE('',#913,#445);
#368=LINE('',#915,#446);
#369=LINE('',#917,#447);
#370=LINE('',#919,#448);
#371=LINE('',#921,#449);
#372=LINE('',#923,#450);
#373=LINE('',#925,#451);
#374=LINE('',#927,#452);
#375=LINE('',#931,#453);
#376=LINE('',#932,#454);
#377=LINE('',#936,#455);
#378=LINE('',#938,#456);
#379=VECTOR('',#640,1.);
#380=VECTOR('',#641,1.);
#381=VECTOR('',#642,1.);
#382=VECTOR('',#643,1.);
#383=VECTOR('',#646,1.);
#384=VECTOR('',#647,1.);
#385=VECTOR('',#648,1.);
#386=VECTOR('',#651,1.);
#387=VECTOR('',#652,1.);
#388=VECTOR('',#653,1.);
#389=VECTOR('',#656,1.);
#390=VECTOR('',#657,1.);
#391=VECTOR('',#658,1.);
#392=VECTOR('',#659,1.);
#393=VECTOR('',#662,1.);
#394=VECTOR('',#663,1.);
#395=VECTOR('',#664,1.);
#396=VECTOR('',#667,1.);
#397=VECTOR('',#668,1.);
#398=VECTOR('',#669,1.);
#399=VECTOR('',#672,1.);
#400=VECTOR('',#673,1.);
#401=VECTOR('',#676,1.);
#402=VECTOR('',#677,1.);
#403=VECTOR('',#686,1.);
#404=VECTOR('',#687,1.);
#405=VECTOR('',#688,1.);
#406=VECTOR('',#689,1.);
#407=VECTOR('',#690,1.);
#408=VECTOR('',#691,1.);
#409=VECTOR('',#694,1.);
#410=VECTOR('',#695,1.);
#411=VECTOR('',#696,1.);
#412=VECTOR('',#697,1.);
#413=VECTOR('',#698,1.);
#414=VECTOR('',#699,1.);
#415=VECTOR('',#700,1.);
#416=VECTOR('',#703,1.);
#417=VECTOR('',#704,1.);
#418=VECTOR('',#705,1.);
#419=VECTOR('',#706,1.);
#420=VECTOR('',#707,1.);
#421=VECTOR('',#708,1.);
#422=VECTOR('',#711,1.);
#423=VECTOR('',#712,1.);
#424=VECTOR('',#713,1.);
#425=VECTOR('',#714,1.);
#426=VECTOR('',#715,1.);
#427=VECTOR('',#716,1.);
#428=VECTOR('',#717,1.);
#429=VECTOR('',#720,1.);
#430=VECTOR('',#721,1.);
#431=VECTOR('',#722,1.);
#432=VECTOR('',#723,1.);
#433=VECTOR('',#724,1.);
#434=VECTOR('',#725,1.);
#435=VECTOR('',#726,1.);
#436=VECTOR('',#727,1.);
#437=VECTOR('',#728,1.);
#438=VECTOR('',#731,1.);
#439=VECTOR('',#732,1.);
#440=VECTOR('',#735,1.);
#441=VECTOR('',#736,1.);
#442=VECTOR('',#739,1.);
#443=VECTOR('',#740,1.);
#444=VECTOR('',#741,1.);
#445=VECTOR('',#742,1.);
#446=VECTOR('',#743,1.);
#447=VECTOR('',#746,1.);
#448=VECTOR('',#747,1.);
#449=VECTOR('',#750,1.);
#450=VECTOR('',#751,1.);
#451=VECTOR('',#754,1.);
#452=VECTOR('',#757,1.);
#453=VECTOR('',#764,1.);
#454=VECTOR('',#765,1.);
#455=VECTOR('',#772,1.);
#456=VECTOR('',#775,1.);
#457=EDGE_LOOP('',(#15,#16,#17,#18));
#458=EDGE_LOOP('',(#19,#20,#21,#22));
#459=EDGE_LOOP('',(#23,#24,#25,#26));
#460=EDGE_LOOP('',(#27,#28,#29,#30));
#461=EDGE_LOOP('',(#31,#32,#33,#34));
#462=EDGE_LOOP('',(#35,#36,#37,#38));
#463=EDGE_LOOP('',(#39,#40,#41,#42));
#464=EDGE_LOOP('',(#43,#44,#45,#46));
#465=EDGE_LOOP('',(#47,#48,#49,#50));
#466=EDGE_LOOP('',(#51,#52,#53,#54));
#467=EDGE_LOOP('',(#55,#56,#57,#58));
#468=EDGE_LOOP('',(#59,#60,#61,#62));
#469=EDGE_LOOP('',(#63,#64,#65,#66,#67,#68));
#470=EDGE_LOOP('',(#69,#70,#71,#72,#73,#74,#75,#76));
#471=EDGE_LOOP('',(#77,#78,#79,#80,#81,#82,#83,#84));
#472=EDGE_LOOP('',(#85,#86,#87,#88,#89,#90,#91,#92));
#473=EDGE_LOOP('',(#93,#94,#95,#96,#97,#98,#99,#100,#101,#102,#103,#104));
#474=EDGE_LOOP('',(#105,#106,#107,#108));
#475=EDGE_LOOP('',(#109,#110,#111,#112));
#476=EDGE_LOOP('',(#113,#114,#115,#116,#117,#118,#119,#120));
#477=EDGE_LOOP('',(#121,#122,#123,#124));
#478=EDGE_LOOP('',(#125,#126,#127,#128));
#479=EDGE_LOOP('',(#129,#130,#131,#132));
#480=EDGE_LOOP('',(#133,#134,#135,#136));
#481=EDGE_LOOP('',(#137,#138,#139,#140));
#482=EDGE_LOOP('',(#141,#142,#143,#144,#145,#146));
#483=EDGE_LOOP('',(#147,#148,#149,#150));
#484=EDGE_LOOP('',(#151,#152,#153,#154));
#485=EDGE_LOOP('',(#155,#156,#157,#158));
#486=EDGE_LOOP('',(#159,#160,#161,#162));
#487=EDGE_LOOP('',(#163,#164,#165,#166));
#488=EDGE_LOOP('',(#167,#168,#169,#170));
#489=FACE_BOUND('',#457,.T.);
#490=FACE_BOUND('',#458,.T.);
#491=FACE_BOUND('',#459,.T.);
#492=FACE_BOUND('',#460,.T.);
#493=FACE_BOUND('',#461,.T.);
#494=FACE_BOUND('',#462,.T.);
#495=FACE_BOUND('',#463,.T.);
#496=FACE_BOUND('',#464,.T.);
#497=FACE_BOUND('',#465,.T.);
#498=FACE_BOUND('',#466,.T.);
#499=FACE_BOUND('',#467,.T.);
#500=FACE_BOUND('',#468,.T.);
#501=FACE_BOUND('',#469,.T.);
#502=FACE_BOUND('',#470,.T.);
#503=FACE_BOUND('',#471,.T.);
#504=FACE_BOUND('',#472,.T.);
#505=FACE_BOUND('',#473,.T.);
#506=FACE_BOUND('',#474,.T.);
#507=FACE_BOUND('',#475,.T.);
#508=FACE_BOUND('',#476,.T.);
#509=FACE_BOUND('',#477,.T.);
#510=FACE_BOUND('',#478,.T.);
#511=FACE_BOUND('',#479,.T.);
#512=FACE_BOUND('',#480,.T.);
#513=FACE_BOUND('',#481,.T.);
#514=FACE_BOUND('',#482,.T.);
#515=FACE_BOUND('',#483,.T.);
#516=FACE_BOUND('',#484,.T.);
#517=FACE_BOUND('',#485,.T.);
#518=FACE_BOUND('',#486,.T.);
#519=FACE_BOUND('',#487,.T.);
#520=FACE_BOUND('',#488,.T.);
#521=PLANE('',#605);
#522=PLANE('',#606);
#523=PLANE('',#607);
#524=PLANE('',#608);
#525=PLANE('',#609);
#526=PLANE('',#610);
#527=PLANE('',#611);
#528=PLANE('',#612);
#529=PLANE('',#613);
#530=PLANE('',#614);
#531=PLANE('',#616);
#532=PLANE('',#617);
#533=PLANE('',#618);
#534=PLANE('',#619);
#535=PLANE('',#620);
#536=PLANE('',#621);
#537=PLANE('',#622);
#538=PLANE('',#623);
#539=PLANE('',#624);
#540=PLANE('',#625);
#541=PLANE('',#626);
#542=PLANE('',#627);
#543=PLANE('',#628);
#544=PLANE('',#629);
#545=PLANE('',#630);
#546=PLANE('',#631);
#547=PLANE('',#632);
#548=PLANE('',#633);
#549=PLANE('',#634);
#550=PLANE('',#635);
#551=ADVANCED_FACE('',(#489),#521,.F.);
#552=ADVANCED_FACE('',(#490),#522,.F.);
#553=ADVANCED_FACE('',(#491),#523,.T.);
#554=ADVANCED_FACE('',(#492),#524,.T.);
#555=ADVANCED_FACE('',(#493),#525,.T.);
#556=ADVANCED_FACE('',(#494),#526,.F.);
#557=ADVANCED_FACE('',(#495),#527,.F.);
#558=ADVANCED_FACE('',(#496),#528,.T.);
#559=ADVANCED_FACE('',(#497,#498),#529,.T.);
#560=ADVANCED_FACE('',(#499,#500),#530,.F.);
#561=ADVANCED_FACE('',(#501),#531,.T.);
#562=ADVANCED_FACE('',(#502),#532,.F.);
#563=ADVANCED_FACE('',(#503),#533,.T.);
#564=ADVANCED_FACE('',(#504),#534,.F.);
#565=ADVANCED_FACE('',(#505),#535,.T.);
#566=ADVANCED_FACE('',(#506),#536,.T.);
#567=ADVANCED_FACE('',(#507),#537,.F.);
#568=ADVANCED_FACE('',(#508),#538,.F.);
#569=ADVANCED_FACE('',(#509),#539,.T.);
#570=ADVANCED_FACE('',(#510),#540,.T.);
#571=ADVANCED_FACE('',(#511),#541,.T.);
#572=ADVANCED_FACE('',(#512),#542,.F.);
#573=ADVANCED_FACE('',(#513),#543,.F.);
#574=ADVANCED_FACE('',(#514),#544,.T.);
#575=ADVANCED_FACE('',(#515),#545,.F.);
#576=ADVANCED_FACE('',(#516),#546,.T.);
#577=ADVANCED_FACE('',(#517),#547,.F.);
#578=ADVANCED_FACE('',(#518),#548,.F.);
#579=ADVANCED_FACE('',(#519),#549,.F.);
#580=ADVANCED_FACE('',(#520),#550,.T.);
#581=CLOSED_SHELL('',(#551,#552,#553,#554,#555,#556,#557,#558,#559,#560));
#582=CLOSED_SHELL('',(#561,#562,#563,#564,#565,#566,#567,#568,#569,#570,
#571,#572,#573,#574,#575,#576,#577,#578,#579,#580));
#583=STYLED_ITEM('',(#585),#598);
#584=STYLED_ITEM('',(#586),#599);
#585=PRESENTATION_STYLE_ASSIGNMENT((#587));
#586=PRESENTATION_STYLE_ASSIGNMENT((#588));
#587=SURFACE_STYLE_USAGE(.BOTH.,#589);
#588=SURFACE_STYLE_USAGE(.BOTH.,#590);
#589=SURFACE_SIDE_STYLE('',(#591));
#590=SURFACE_SIDE_STYLE('',(#592));
#591=SURFACE_STYLE_FILL_AREA(#593);
#592=SURFACE_STYLE_FILL_AREA(#594);
#593=FILL_AREA_STYLE('',(#595));
#594=FILL_AREA_STYLE('',(#596));
#595=FILL_AREA_STYLE_COLOUR('',#597);
#596=FILL_AREA_STYLE_COLOUR('',#10);
#597=COLOUR_RGB('',0.917647058823529,0.917647058823529,0.917647058823529);
#598=MANIFOLD_SOLID_BREP('Part 2',#581);
#599=MANIFOLD_SOLID_BREP('Part 1',#582);
#600=SHAPE_DEFINITION_REPRESENTATION(#952,#602);
#601=SHAPE_DEFINITION_REPRESENTATION(#953,#603);
#602=SHAPE_REPRESENTATION('Part 2',(#604),#942);
#603=SHAPE_REPRESENTATION('Part 1',(#615),#943);
#604=AXIS2_PLACEMENT_3D('',#778,#636,#637);
#605=AXIS2_PLACEMENT_3D('',#779,#638,#639);
#606=AXIS2_PLACEMENT_3D('',#788,#644,#645);
#607=AXIS2_PLACEMENT_3D('',#794,#649,#650);
#608=AXIS2_PLACEMENT_3D('',#800,#654,#655);
#609=AXIS2_PLACEMENT_3D('',#809,#660,#661);
#610=AXIS2_PLACEMENT_3D('',#815,#665,#666);
#611=AXIS2_PLACEMENT_3D('',#821,#670,#671);
#612=AXIS2_PLACEMENT_3D('',#824,#674,#675);
#613=AXIS2_PLACEMENT_3D('',#827,#678,#679);
#614=AXIS2_PLACEMENT_3D('',#828,#680,#681);
#615=AXIS2_PLACEMENT_3D('',#829,#682,#683);
#616=AXIS2_PLACEMENT_3D('',#830,#684,#685);
#617=AXIS2_PLACEMENT_3D('',#843,#692,#693);
#618=AXIS2_PLACEMENT_3D('',#857,#701,#702);
#619=AXIS2_PLACEMENT_3D('',#869,#709,#710);
#620=AXIS2_PLACEMENT_3D('',#883,#718,#719);
#621=AXIS2_PLACEMENT_3D('',#899,#729,#730);
#622=AXIS2_PLACEMENT_3D('',#903,#733,#734);
#623=AXIS2_PLACEMENT_3D('',#907,#737,#738);
#624=AXIS2_PLACEMENT_3D('',#916,#744,#745);
#625=AXIS2_PLACEMENT_3D('',#920,#748,#749);
#626=AXIS2_PLACEMENT_3D('',#924,#752,#753);
#627=AXIS2_PLACEMENT_3D('',#926,#755,#756);
#628=AXIS2_PLACEMENT_3D('',#928,#758,#759);
#629=AXIS2_PLACEMENT_3D('',#929,#760,#761);
#630=AXIS2_PLACEMENT_3D('',#930,#762,#763);
#631=AXIS2_PLACEMENT_3D('',#933,#766,#767);
#632=AXIS2_PLACEMENT_3D('',#934,#768,#769);
#633=AXIS2_PLACEMENT_3D('',#935,#770,#771);
#634=AXIS2_PLACEMENT_3D('',#937,#773,#774);
#635=AXIS2_PLACEMENT_3D('',#939,#776,#777);
#636=DIRECTION('',(0.,0.,1.));
#637=DIRECTION('',(1.,0.,0.));
#638=DIRECTION('',(-1.34001772798203E-16,1.,0.));
#639=DIRECTION('',(-1.,-1.34001772798203E-16,0.));
#640=DIRECTION('',(1.,1.34001772798203E-16,0.));
#641=DIRECTION('',(0.,0.,-1.));
#642=DIRECTION('',(1.,1.34001772798203E-16,0.));
#643=DIRECTION('',(0.,0.,-1.));
#644=DIRECTION('',(-1.,-5.0225156000287E-16,0.));
#645=DIRECTION('',(5.0225156000287E-16,-1.,0.));
#646=DIRECTION('',(-5.0225156000287E-16,1.,0.));
#647=DIRECTION('',(0.,0.,-1.));
#648=DIRECTION('',(-5.0225156000287E-16,1.,0.));
#649=DIRECTION('',(-1.34001772798204E-16,1.,0.));
#650=DIRECTION('',(-1.,-1.34001772798204E-16,0.));
#651=DIRECTION('',(1.,1.34001772798204E-16,0.));
#652=DIRECTION('',(0.,0.,-1.));
#653=DIRECTION('',(1.,1.34001772798204E-16,0.));
#654=DIRECTION('',(0.,-1.,0.));
#655=DIRECTION('',(0.,0.,-1.));
#656=DIRECTION('',(-1.,0.,0.));
#657=DIRECTION('',(0.,0.,-1.));
#658=DIRECTION('',(-1.,0.,0.));
#659=DIRECTION('',(0.,0.,-1.));
#660=DIRECTION('',(-1.,0.,0.));
#661=DIRECTION('',(0.,0.,1.));
#662=DIRECTION('',(0.,1.,0.));
#663=DIRECTION('',(0.,0.,-1.));
#664=DIRECTION('',(0.,1.,0.));
#665=DIRECTION('',(0.,-1.,0.));
#666=DIRECTION('',(0.,0.,-1.));
#667=DIRECTION('',(-1.,0.,0.));
#668=DIRECTION('',(0.,0.,-1.));
#669=DIRECTION('',(-1.,0.,0.));
#670=DIRECTION('',(-1.,0.,0.));
#671=DIRECTION('',(0.,0.,1.));
#672=DIRECTION('',(0.,1.,0.));
#673=DIRECTION('',(0.,1.,0.));
#674=DIRECTION('',(-1.,-5.02251560002871E-16,0.));
#675=DIRECTION('',(5.02251560002871E-16,-1.,0.));
#676=DIRECTION('',(-5.02251560002871E-16,1.,0.));
#677=DIRECTION('',(-5.02251560002871E-16,1.,0.));
#678=DIRECTION('',(0.,0.,1.));
#679=DIRECTION('',(1.,0.,0.));
#680=DIRECTION('',(0.,0.,1.));
#681=DIRECTION('',(1.,0.,0.));
#682=DIRECTION('',(0.,0.,1.));
#683=DIRECTION('',(1.,0.,0.));
#684=DIRECTION('',(0.,0.,1.));
#685=DIRECTION('',(1.,0.,0.));
#686=DIRECTION('',(2.7912276378241E-16,-1.,0.));
#687=DIRECTION('',(1.,5.0225156000287E-16,0.));
#688=DIRECTION('',(-5.0225156000287E-16,1.,0.));
#689=DIRECTION('',(1.,1.34001772798204E-16,0.));
#690=DIRECTION('',(-1.34001772798204E-16,1.,0.));
#691=DIRECTION('',(1.,2.90082530009202E-16,0.));
#692=DIRECTION('',(-1.,-5.0225156000287E-16,0.));
#693=DIRECTION('',(5.0225156000287E-16,-1.,0.));
#694=DIRECTION('',(0.,0.,-1.));
#695=DIRECTION('',(-5.0225156000287E-16,1.,0.));
#696=DIRECTION('',(0.,0.,-1.));
#697=DIRECTION('',(-5.0225156000287E-16,1.,0.));
#698=DIRECTION('',(0.,0.,-1.));
#699=DIRECTION('',(0.,0.,-1.));
#700=DIRECTION('',(-5.0225156000287E-16,1.,0.));
#701=DIRECTION('',(-1.34001772798204E-16,1.,0.));
#702=DIRECTION('',(-1.,-1.34001772798204E-16,0.));
#703=DIRECTION('',(-1.,-1.34001772798204E-16,1.5770213417971E-16));
#704=DIRECTION('',(0.,0.,1.));
#705=DIRECTION('',(1.,1.34001772798204E-16,0.));
#706=DIRECTION('',(0.,0.,-1.));
#707=DIRECTION('',(1.,1.34001772798204E-16,0.));
#708=DIRECTION('',(0.,0.,1.));
#709=DIRECTION('',(-2.90082530009202E-16,1.,0.));
#710=DIRECTION('',(-1.,-2.90082530009202E-16,0.));
#711=DIRECTION('',(0.,0.,1.));
#712=DIRECTION('',(-1.,-2.90082530009202E-16,1.5770213417971E-16));
#713=DIRECTION('',(0.,0.,1.));
#714=DIRECTION('',(1.,2.90082530009202E-16,0.));
#715=DIRECTION('',(0.,0.,-1.));
#716=DIRECTION('',(1.,2.90082530009202E-16,0.));
#717=DIRECTION('',(0.,0.,-1.));
#718=DIRECTION('',(0.,0.,1.));
#719=DIRECTION('',(1.,0.,0.));
#720=DIRECTION('',(1.,5.0225156000287E-16,0.));
#721=DIRECTION('',(2.7912276378241E-16,-1.,0.));
#722=DIRECTION('',(1.,0.,0.));
#723=DIRECTION('',(0.,-1.,0.));
#724=DIRECTION('',(-1.,-9.95877961974488E-17,0.));
#725=DIRECTION('',(0.,1.,0.));
#726=DIRECTION('',(-1.34001772798204E-16,1.,0.));
#727=DIRECTION('',(-5.02251560002871E-16,1.,0.));
#728=DIRECTION('',(1.,1.34001772798203E-16,0.));
#729=DIRECTION('',(-1.,-5.02251560002871E-16,0.));
#730=DIRECTION('',(5.02251560002871E-16,-1.,0.));
#731=DIRECTION('',(-5.02251560002871E-16,1.,0.));
#732=DIRECTION('',(0.,0.,-1.));
#733=DIRECTION('',(-1.,0.,0.));
#734=DIRECTION('',(0.,0.,1.));
#735=DIRECTION('',(0.,0.,-1.));
#736=DIRECTION('',(0.,1.,0.));
#737=DIRECTION('',(1.,2.7912276378241E-16,0.));
#738=DIRECTION('',(-2.7912276378241E-16,1.,0.));
#739=DIRECTION('',(0.,0.,-1.));
#740=DIRECTION('',(-2.7912276378241E-16,1.,0.));
#741=DIRECTION('',(0.,0.,-1.));
#742=DIRECTION('',(2.62808507843442E-16,-1.,0.));
#743=DIRECTION('',(0.,0.,-1.));
#744=DIRECTION('',(0.,1.,0.));
#745=DIRECTION('',(0.,0.,1.));
#746=DIRECTION('',(1.,1.38489358581101E-16,0.));
#747=DIRECTION('',(0.,0.,-1.));
#748=DIRECTION('',(1.,0.,0.));
#749=DIRECTION('',(0.,0.,-1.));
#750=DIRECTION('',(0.,-1.,0.));
#751=DIRECTION('',(0.,0.,-1.));
#752=DIRECTION('',(9.95877961974488E-17,-1.,0.));
#753=DIRECTION('',(1.,9.95877961974488E-17,0.));
#754=DIRECTION('',(-1.,-9.95877961974488E-17,0.));
#755=DIRECTION('',(-1.34001772798203E-16,1.,0.));
#756=DIRECTION('',(-1.,-1.34001772798203E-16,0.));
#757=DIRECTION('',(1.,1.34001772798203E-16,0.));
#758=DIRECTION('',(0.,0.,1.));
#759=DIRECTION('',(1.,0.,0.));
#760=DIRECTION('',(0.,0.,1.));
#761=DIRECTION('',(1.,0.,0.));
#762=DIRECTION('',(-1.5770213417971E-16,-2.11323655541413E-32,-1.));
#763=DIRECTION('',(-1.,0.,1.5770213417971E-16));
#764=DIRECTION('',(-1.34001772798204E-16,1.,0.));
#765=DIRECTION('',(-1.34001772798204E-16,1.,0.));
#766=DIRECTION('',(-1.,-1.34001772798204E-16,0.));
#767=DIRECTION('',(1.34001772798204E-16,-1.,0.));
#768=DIRECTION('',(-1.,-1.34001772798204E-16,0.));
#769=DIRECTION('',(1.34001772798204E-16,-1.,0.));
#770=DIRECTION('',(5.0225156000287E-16,-1.,0.));
#771=DIRECTION('',(1.,5.0225156000287E-16,0.));
#772=DIRECTION('',(1.,5.0225156000287E-16,0.));
#773=DIRECTION('',(0.,0.,-1.));
#774=DIRECTION('',(-1.,0.,0.));
#775=DIRECTION('',(1.,5.0225156000287E-16,0.));
#776=DIRECTION('',(5.0225156000287E-16,-1.,0.));
#777=DIRECTION('',(1.,5.0225156000287E-16,0.));
#778=CARTESIAN_POINT('',(0.,0.,0.));
#779=CARTESIAN_POINT('',(-0.0300255980251561,-0.0590353010994522,0.012));
#780=CARTESIAN_POINT('',(-0.0300255980251561,-0.0590353010994522,0.007));
#781=CARTESIAN_POINT('',(-0.185371913801665,-0.0590353010994523,0.007));
#782=CARTESIAN_POINT('',(0.125320717751353,-0.0590353010994524,0.007));
#783=CARTESIAN_POINT('',(0.125320717751353,-0.0590353010994524,0.012));
#784=CARTESIAN_POINT('',(0.125320717751353,-0.0590353010994524,0.012));
#785=CARTESIAN_POINT('',(-0.0300255980251561,-0.0590353010994522,0.012));
#786=CARTESIAN_POINT('',(-0.185371913801665,-0.0590353010994523,0.012));
#787=CARTESIAN_POINT('',(-0.185371913801665,-0.0590353010994523,0.012));
#788=CARTESIAN_POINT('',(0.125320717751353,-0.00377300262999547,0.012));
#789=CARTESIAN_POINT('',(0.125320717751353,-0.00377300262999547,0.007));
#790=CARTESIAN_POINT('',(0.125320717751353,0.0514892958394614,0.007));
#791=CARTESIAN_POINT('',(0.125320717751353,0.0514892958394614,0.012));
#792=CARTESIAN_POINT('',(0.125320717751353,0.0514892958394614,0.012));
#793=CARTESIAN_POINT('',(0.125320717751353,-0.00377300262999547,0.012));
#794=CARTESIAN_POINT('',(-0.107698755913411,0.0514892958394613,0.012));
#795=CARTESIAN_POINT('',(-0.107698755913411,0.0514892958394613,0.007));
#796=CARTESIAN_POINT('',(-0.185371913801665,0.0514892958394613,0.007));
#797=CARTESIAN_POINT('',(-0.185371913801665,0.0514892958394613,0.012));
#798=CARTESIAN_POINT('',(-0.185371913801665,0.0514892958394613,0.012));
#799=CARTESIAN_POINT('',(-0.107698755913411,0.0514892958394613,0.012));
#800=CARTESIAN_POINT('',(-0.0300255980251759,0.0484894864299725,0.012));
#801=CARTESIAN_POINT('',(-0.0300255980251759,0.0484894864299725,0.007));
#802=CARTESIAN_POINT('',(0.122320717751333,0.0484894864299725,0.007));
#803=CARTESIAN_POINT('',(-0.182371913801685,0.0484894864299725,0.007));
#804=CARTESIAN_POINT('',(0.122320717751333,0.0484894864299725,0.012));
#805=CARTESIAN_POINT('',(0.122320717751333,0.0484894864299725,0.012));
#806=CARTESIAN_POINT('',(-0.0300255980251759,0.0484894864299725,0.012));
#807=CARTESIAN_POINT('',(-0.182371913801685,0.0484894864299725,0.012));
#808=CARTESIAN_POINT('',(-0.182371913801685,0.0484894864299725,0.012));
#809=CARTESIAN_POINT('',(0.122320717751333,-0.00377300262999538,0.012));
#810=CARTESIAN_POINT('',(0.122320717751333,-0.00377300262999538,0.007));
#811=CARTESIAN_POINT('',(0.122320717751333,-0.0560354916899632,0.007));
#812=CARTESIAN_POINT('',(0.122320717751333,-0.0560354916899632,0.012));
#813=CARTESIAN_POINT('',(0.122320717751333,-0.0560354916899632,0.012));
#814=CARTESIAN_POINT('',(0.122320717751333,-0.00377300262999538,0.012));
#815=CARTESIAN_POINT('',(-0.0300255980251759,-0.0560354916899632,0.012));
#816=CARTESIAN_POINT('',(-0.0300255980251759,-0.0560354916899632,0.007));
#817=CARTESIAN_POINT('',(-0.182371913801685,-0.0560354916899632,0.007));
#818=CARTESIAN_POINT('',(-0.182371913801685,-0.0560354916899632,0.012));
#819=CARTESIAN_POINT('',(-0.182371913801685,-0.0560354916899632,0.012));
#820=CARTESIAN_POINT('',(-0.0300255980251759,-0.0560354916899632,0.012));
#821=CARTESIAN_POINT('',(-0.182371913801685,-0.00377300262999538,0.012));
#822=CARTESIAN_POINT('',(-0.182371913801685,-0.00377300262999538,0.007));
#823=CARTESIAN_POINT('',(-0.182371913801685,-0.00377300262999538,0.012));
#824=CARTESIAN_POINT('',(-0.185371913801665,0.023858146604733,0.012));
#825=CARTESIAN_POINT('',(-0.185371913801665,0.023858146604733,0.007));
#826=CARTESIAN_POINT('',(-0.185371913801665,0.023858146604733,0.012));
#827=CARTESIAN_POINT('',(-0.0300255980251561,-0.00377300262999547,0.012));
#828=CARTESIAN_POINT('',(-0.0300255980251561,-0.00377300262999547,0.007));
#829=CARTESIAN_POINT('',(0.,0.,0.));
#830=CARTESIAN_POINT('',(-0.0300255980251561,-0.00377300262999558,0.007));
#831=CARTESIAN_POINT('',(0.122253086198315,0.0236298375433041,0.007));
#832=CARTESIAN_POINT('',(0.122253086198315,0.0484894864299725,0.007));
#833=CARTESIAN_POINT('',(0.122253086198315,0.00548929583946141,0.007));
#834=CARTESIAN_POINT('',(0.100320717751353,0.0054892958394614,0.007));
#835=CARTESIAN_POINT('',(0.125320717751353,0.00548929583946141,0.007));
#836=CARTESIAN_POINT('',(0.125320717751353,-0.00377300262999547,0.007));
#837=CARTESIAN_POINT('',(0.125320717751353,0.0514892958394614,0.007));
#838=CARTESIAN_POINT('',(-0.107698755913411,0.0514892958394613,0.007));
#839=CARTESIAN_POINT('',(0.120320717751353,0.0514892958394614,0.007));
#840=CARTESIAN_POINT('',(0.120320717751353,0.0264892958394614,0.007));
#841=CARTESIAN_POINT('',(0.120320717751353,0.0484894864299725,0.007));
#842=CARTESIAN_POINT('',(0.110292879729337,0.0484894864299725,0.007));
#843=CARTESIAN_POINT('',(0.125320717751353,-0.00377300262999547,0.007));
#844=CARTESIAN_POINT('',(0.125320717751353,-0.00951070416053859,0.00549068570509553));
#845=CARTESIAN_POINT('',(0.125320717751353,-0.00951070416053859,0.007));
#846=CARTESIAN_POINT('',(0.125320717751353,-0.00951070416053859,0.00398137141019106));
#847=CARTESIAN_POINT('',(0.125320717751353,-0.00377300262999547,0.007));
#848=CARTESIAN_POINT('',(0.125320717751353,-0.0590353010994524,0.007));
#849=CARTESIAN_POINT('',(0.125320717751353,-0.0590353010994524,0.007));
#850=CARTESIAN_POINT('',(0.125320717751353,-0.0590353010994524,0.));
#851=CARTESIAN_POINT('',(0.125320717751353,-0.00377300262999547,0.));
#852=CARTESIAN_POINT('',(0.125320717751353,0.0514892958394614,0.));
#853=CARTESIAN_POINT('',(0.125320717751353,0.0514892958394614,0.007));
#854=CARTESIAN_POINT('',(0.125320717751353,0.00548929583946141,0.00549068570509553));
#855=CARTESIAN_POINT('',(0.125320717751353,0.00548929583946141,0.00398137141019106));
#856=CARTESIAN_POINT('',(0.125320717751353,-0.00201070416053859,0.00398137141019106));
#857=CARTESIAN_POINT('',(-0.107698755913411,0.0514892958394613,0.007));
#858=CARTESIAN_POINT('',(0.114820717751353,0.0514892958394614,0.004));
#859=CARTESIAN_POINT('',(0.120320717751353,0.0514892958394614,0.004));
#860=CARTESIAN_POINT('',(0.109320717751353,0.0514892958394614,0.004));
#861=CARTESIAN_POINT('',(0.120320717751353,0.0514892958394614,0.0055));
#862=CARTESIAN_POINT('',(-0.107698755913411,0.0514892958394613,0.));
#863=CARTESIAN_POINT('',(-0.185371913801665,0.0514892958394613,0.));
#864=CARTESIAN_POINT('',(-0.185371913801665,0.0514892958394613,0.007));
#865=CARTESIAN_POINT('',(-0.185371913801665,0.0514892958394613,0.007));
#866=CARTESIAN_POINT('',(-0.107698755913411,0.0514892958394613,0.007));
#867=CARTESIAN_POINT('',(0.109320717751353,0.0514892958394614,0.007));
#868=CARTESIAN_POINT('',(0.109320717751353,0.0514892958394614,0.0055));
#869=CARTESIAN_POINT('',(0.110292879729337,0.0484894864299725,0.007));
#870=CARTESIAN_POINT('',(0.120320717751353,0.0484894864299725,0.007));
#871=CARTESIAN_POINT('',(0.120320717751353,0.0484894864299725,0.004));
#872=CARTESIAN_POINT('',(0.110292879729337,0.0484894864299725,0.004));
#873=CARTESIAN_POINT('',(0.109320717751353,0.0484894864299725,0.004));
#874=CARTESIAN_POINT('',(0.109320717751353,0.0484894864299725,0.007));
#875=CARTESIAN_POINT('',(0.109320717751353,0.0484894864299725,0.007));
#876=CARTESIAN_POINT('',(0.110292879729337,0.0484894864299725,0.007));
#877=CARTESIAN_POINT('',(0.0983326732603587,0.0484894864299725,0.007));
#878=CARTESIAN_POINT('',(0.0983326732603587,0.0484894864299725,0.007));
#879=CARTESIAN_POINT('',(0.0983326732603587,0.0484894864299725,0.003));
#880=CARTESIAN_POINT('',(0.110292879729337,0.0484894864299725,0.003));
#881=CARTESIAN_POINT('',(0.122253086198315,0.0484894864299725,0.003));
#882=CARTESIAN_POINT('',(0.122253086198315,0.0484894864299725,0.007));
#883=CARTESIAN_POINT('',(-0.0300255980251561,-0.00377300262999558,0.007));
#884=CARTESIAN_POINT('',(0.100320717751353,-0.0095107041605386,0.007));
#885=CARTESIAN_POINT('',(0.122253086198315,-0.00951070416053859,0.007));
#886=CARTESIAN_POINT('',(0.122253086198315,0.0236298375433041,0.007));
#887=CARTESIAN_POINT('',(0.122253086198315,-0.0540355135700275,0.007));
#888=CARTESIAN_POINT('',(0.121253086198315,-0.0540355135700275,0.007));
#889=CARTESIAN_POINT('',(-0.180371913801685,-0.0540355135700275,0.007));
#890=CARTESIAN_POINT('',(-0.180371913801685,-0.00377301357002751,0.007));
#891=CARTESIAN_POINT('',(-0.180371913801685,0.0464894864299725,0.007));
#892=CARTESIAN_POINT('',(-0.0410196202706632,0.0464894864299725,0.007));
#893=CARTESIAN_POINT('',(0.0983326732603587,0.0464894864299725,0.007));
#894=CARTESIAN_POINT('',(0.0983326732603587,0.0474894864299725,0.007));
#895=CARTESIAN_POINT('',(0.109320717751353,0.0264892958394614,0.007));
#896=CARTESIAN_POINT('',(-0.185371913801665,0.023858146604733,0.007));
#897=CARTESIAN_POINT('',(-0.185371913801665,-0.0590353010994523,0.007));
#898=CARTESIAN_POINT('',(-0.0300255980251561,-0.0590353010994522,0.007));
#899=CARTESIAN_POINT('',(-0.185371913801665,0.023858146604733,0.007));
#900=CARTESIAN_POINT('',(-0.185371913801665,0.023858146604733,0.));
#901=CARTESIAN_POINT('',(-0.185371913801665,-0.0590353010994523,0.));
#902=CARTESIAN_POINT('',(-0.185371913801665,-0.0590353010994523,0.007));
#903=CARTESIAN_POINT('',(0.0983326732603587,0.0474894864299725,0.007));
#904=CARTESIAN_POINT('',(0.0983326732603587,0.0464894864299725,0.007));
#905=CARTESIAN_POINT('',(0.0983326732603587,0.0464894864299725,0.003));
#906=CARTESIAN_POINT('',(0.0983326732603587,0.0474894864299725,0.003));
#907=CARTESIAN_POINT('',(0.122253086198315,0.0236298375433041,0.007));
#908=CARTESIAN_POINT('',(0.122253086198315,-0.00951070416053859,0.007));
#909=CARTESIAN_POINT('',(0.122253086198315,-0.00951070416053859,0.00398137141019106));
#910=CARTESIAN_POINT('',(0.122253086198315,0.0236298375433041,0.00398137141019106));
#911=CARTESIAN_POINT('',(0.122253086198315,0.00548929583946141,0.00398137141019106));
#912=CARTESIAN_POINT('',(0.122253086198315,0.00548929583946141,0.007));
#913=CARTESIAN_POINT('',(0.122253086198315,-0.027632662456696,0.003));
#914=CARTESIAN_POINT('',(0.122253086198315,-0.0540355135700275,0.003));
#915=CARTESIAN_POINT('',(0.122253086198315,-0.0540355135700275,0.007));
#916=CARTESIAN_POINT('',(0.121253086198315,-0.0540355135700275,0.007));
#917=CARTESIAN_POINT('',(-0.030059413801685,-0.0540355135700275,0.003));
#918=CARTESIAN_POINT('',(-0.180371913801685,-0.0540355135700275,0.003));
#919=CARTESIAN_POINT('',(-0.180371913801685,-0.0540355135700275,0.007));
#920=CARTESIAN_POINT('',(-0.180371913801685,-0.00377301357002751,0.007));
#921=CARTESIAN_POINT('',(-0.180371913801685,-0.00377301357002751,0.003));
#922=CARTESIAN_POINT('',(-0.180371913801685,0.0464894864299725,0.003));
#923=CARTESIAN_POINT('',(-0.180371913801685,0.0464894864299725,0.007));
#924=CARTESIAN_POINT('',(-0.0410196202706632,0.0464894864299725,0.007));
#925=CARTESIAN_POINT('',(-0.0410196202706632,0.0464894864299725,0.003));
#926=CARTESIAN_POINT('',(-0.0300255980251561,-0.0590353010994522,0.007));
#927=CARTESIAN_POINT('',(-0.0300255980251561,-0.0590353010994522,0.));
#928=CARTESIAN_POINT('',(-0.0300255980251561,-0.00377300262999558,0.));
#929=CARTESIAN_POINT('',(-0.0300255980251561,-0.00377300262999558,0.003));
#930=CARTESIAN_POINT('',(0.114820717751353,0.0264892958394614,0.004));
#931=CARTESIAN_POINT('',(0.120320717751353,0.0264892958394614,0.004));
#932=CARTESIAN_POINT('',(0.109320717751353,0.0264892958394614,0.004));
#933=CARTESIAN_POINT('',(0.120320717751353,0.0264892958394614,0.0055));
#934=CARTESIAN_POINT('',(0.109320717751353,0.0264892958394614,0.0055));
#935=CARTESIAN_POINT('',(0.100320717751353,-0.0095107041605386,0.00549068570509553));
#936=CARTESIAN_POINT('',(0.100320717751353,-0.0095107041605386,0.00398137141019106));
#937=CARTESIAN_POINT('',(0.100320717751353,-0.00201070416053861,0.00398137141019106));
#938=CARTESIAN_POINT('',(0.100320717751353,0.0054892958394614,0.00398137141019106));
#939=CARTESIAN_POINT('',(0.100320717751353,0.0054892958394614,0.00549068570509553));
#940=MECHANICAL_DESIGN_GEOMETRIC_PRESENTATION_REPRESENTATION('',(#583),
#942);
#941=MECHANICAL_DESIGN_GEOMETRIC_PRESENTATION_REPRESENTATION('',(#584),
#943);
#942=(
GEOMETRIC_REPRESENTATION_CONTEXT(3)
GLOBAL_UNCERTAINTY_ASSIGNED_CONTEXT((#944))
GLOBAL_UNIT_ASSIGNED_CONTEXT((#950,#948,#946))
REPRESENTATION_CONTEXT('Part 2','TOP_LEVEL_ASSEMBLY_PART')
);
#943=(
GEOMETRIC_REPRESENTATION_CONTEXT(3)
GLOBAL_UNCERTAINTY_ASSIGNED_CONTEXT((#945))
GLOBAL_UNIT_ASSIGNED_CONTEXT((#951,#949,#947))
REPRESENTATION_CONTEXT('Part 1','TOP_LEVEL_ASSEMBLY_PART')
);
#944=UNCERTAINTY_MEASURE_WITH_UNIT(LENGTH_MEASURE(1.E-8),#950,
'DISTANCE_ACCURACY_VALUE','Maximum Tolerance applied to model');
#945=UNCERTAINTY_MEASURE_WITH_UNIT(LENGTH_MEASURE(1.E-8),#951,
'DISTANCE_ACCURACY_VALUE','Maximum Tolerance applied to model');
#946=(
NAMED_UNIT(*)
SI_UNIT($,.STERADIAN.)
SOLID_ANGLE_UNIT()
);
#947=(
NAMED_UNIT(*)
SI_UNIT($,.STERADIAN.)
SOLID_ANGLE_UNIT()
);
#948=(
NAMED_UNIT(*)
PLANE_ANGLE_UNIT()
SI_UNIT($,.RADIAN.)
);
#949=(
NAMED_UNIT(*)
PLANE_ANGLE_UNIT()
SI_UNIT($,.RADIAN.)
);
#950=(
LENGTH_UNIT()
NAMED_UNIT(*)
SI_UNIT($,.METRE.)
);
#951=(
LENGTH_UNIT()
NAMED_UNIT(*)
SI_UNIT($,.METRE.)
);
#952=PRODUCT_DEFINITION_SHAPE('','',#954);
#953=PRODUCT_DEFINITION_SHAPE('','',#955);
#954=PRODUCT_DEFINITION('','',#958,#956);
#955=PRODUCT_DEFINITION('','',#959,#957);
#956=PRODUCT_DEFINITION_CONTEXT('',#970,'design');
#957=PRODUCT_DEFINITION_CONTEXT('',#971,'design');
#958=PRODUCT_DEFINITION_FORMATION_WITH_SPECIFIED_SOURCE('','',#962,
 .NOT_KNOWN.);
#959=PRODUCT_DEFINITION_FORMATION_WITH_SPECIFIED_SOURCE('','',#963,
 .NOT_KNOWN.);
#960=PRODUCT_RELATED_PRODUCT_CATEGORY('','',(#962));
#961=PRODUCT_RELATED_PRODUCT_CATEGORY('','',(#963));
#962=PRODUCT('Part 2','Part 2','Part 2',(#966));
#963=PRODUCT('Part 1','Part 1','Part 1',(#967));
#964=PRODUCT_CATEGORY('','');
#965=PRODUCT_CATEGORY('','');
#966=PRODUCT_CONTEXT('',#970,'mechanical');
#967=PRODUCT_CONTEXT('',#971,'mechanical');
#968=APPLICATION_PROTOCOL_DEFINITION('international standard',
'ap242_managed_model_based_3d_engineering',2020,#970);
#969=APPLICATION_PROTOCOL_DEFINITION('international standard',
'ap242_managed_model_based_3d_engineering',2020,#971);
#970=APPLICATION_CONTEXT('managed model based 3d engineering');
#971=APPLICATION_CONTEXT('managed model based 3d engineering');
ENDSEC;
END-ISO-10303-21;
